HIERARCHY
ROOT Root
{
  OFFSET 0.0 0.0 0.0
  CHANNELS 6 Xposition Yposition Zposition Zrotation Yrotation Xrotation
  JOINT Hips
  {
    OFFSET 0.0 100.0 0.0
    CHANNELS 6 Xposition Yposition Zposition Zrotation Yrotation Xrotation
    JOINT Spine1
    {
      OFFSET 5.003913 -0.037094 -0.013727
      CHANNELS 3 Zrotation Yrotation Xrotation
      JOINT Spine2
      {
        OFFSET 7.125363 -1e-06 0.0
        CHANNELS 3 Zrotation Yrotation Xrotation
        JOINT Chest
        {
          OFFSET 7.594027 1e-06 0.0
          CHANNELS 3 Zrotation Yrotation Xrotation
          JOINT Neck1
          {
            OFFSET 26.313086 -0.460272 -0.181672
            CHANNELS 3 Zrotation Yrotation Xrotation
            JOINT Neck2
            {
              OFFSET 8.045911 0.0 0.0
              CHANNELS 3 Zrotation Yrotation Xrotation
              JOINT Head
              {
                OFFSET 6.432774 0.0 0.0
                CHANNELS 3 Zrotation Yrotation Xrotation
                JOINT HeadEnd
                {
                  OFFSET 16.169773 0.06451 0.00362
                  CHANNELS 3 Zrotation Yrotation Xrotation
                }
                JOINT Jaw
                {
                  OFFSET 0.108741 3.12938 0.002639
                  CHANNELS 3 Zrotation Yrotation Xrotation
                }
                JOINT LeftEye
                {
                  OFFSET 4.45173 8.166359 3.206392
                  CHANNELS 3 Zrotation Yrotation Xrotation
                }
                JOINT RightEye
                {
                  OFFSET 4.436895 8.135758 -3.222429
                  CHANNELS 3 Zrotation Yrotation Xrotation
                }
              }
            }
          }
          JOINT LeftShoulder
          {
            OFFSET 23.218927 5.195579 1.621656
            CHANNELS 3 Zrotation Yrotation Xrotation
            JOINT LeftArm
            {
              OFFSET 15.902118 2e-06 -2e-06
              CHANNELS 3 Zrotation Yrotation Xrotation
              JOINT LeftForeArm
              {
                OFFSET 28.739307 0.0 -1e-06
                CHANNELS 3 Zrotation Yrotation Xrotation
                JOINT LeftHand
                {
                  OFFSET 27.093981 -4e-06 0.0
                  CHANNELS 3 Zrotation Yrotation Xrotation
                  JOINT LeftHandThumb1
                  {
                    OFFSET 2.276781 3.380274 0.83384
                    CHANNELS 3 Zrotation Yrotation Xrotation
                    JOINT LeftHandThumb2
                    {
                      OFFSET 4.705309 -1e-06 -1e-06
                      CHANNELS 3 Zrotation Yrotation Xrotation
                      JOINT LeftHandThumb3
                      {
                        OFFSET 2.798515 0.0 3e-06
                        CHANNELS 3 Zrotation Yrotation Xrotation
                        JOINT LeftHandThumbEnd
                        {
                          OFFSET 3.180793 4e-06 -4e-06
                          CHANNELS 3 Zrotation Yrotation Xrotation
                        }
                      }
                    }
                  }
                  JOINT LeftHandIndex1
                  {
                    OFFSET 3.247786 2.352677 0.137192
                    CHANNELS 3 Zrotation Yrotation Xrotation
                    JOINT LeftHandIndex2
                    {
                      OFFSET 6.367095 1e-06 0.0
                      CHANNELS 3 Zrotation Yrotation Xrotation
                      JOINT LeftHandIndex3
                      {
                        OFFSET 3.662364 0.0 0.0
                        CHANNELS 3 Zrotation Yrotation Xrotation
                        JOINT LeftHandIndex4
                        {
                          OFFSET 2.329242 4e-06 -4e-06
                          CHANNELS 3 Zrotation Yrotation Xrotation
                          JOINT LeftHandIndexEnd
                          {
                            OFFSET 2.767823 1e-06 0.0
                            CHANNELS 3 Zrotation Yrotation Xrotation
                          }
                        }
                      }
                    }
                  }
                  JOINT LeftHandMiddle1
                  {
                    OFFSET 3.163612 0.945023 -0.406112
                    CHANNELS 3 Zrotation Yrotation Xrotation
                    JOINT LeftHandMiddle2
                    {
                      OFFSET 6.276789 3e-06 0.0
                      CHANNELS 3 Zrotation Yrotation Xrotation
                      JOINT LeftHandMiddle3
                      {
                        OFFSET 4.35652 -1e-06 4e-06
                        CHANNELS 3 Zrotation Yrotation Xrotation
                        JOINT LeftHandMiddle4
                        {
                          OFFSET 2.996877 0.0 8e-06
                          CHANNELS 3 Zrotation Yrotation Xrotation
                          JOINT LeftHandMiddleEnd
                          {
                            OFFSET 2.323256 3e-06 -4e-06
                            CHANNELS 3 Zrotation Yrotation Xrotation
                          }
                        }
                      }
                    }
                  }
                  JOINT LeftHandRing1
                  {
                    OFFSET 2.882606 -0.309162 0.107445
                    CHANNELS 3 Zrotation Yrotation Xrotation
                    JOINT LeftHandRing2
                    {
                      OFFSET 6.033198 0.0 4e-06
                      CHANNELS 3 Zrotation Yrotation Xrotation
                      JOINT LeftHandRing3
                      {
                        OFFSET 4.350578 3e-06 0.0
                        CHANNELS 3 Zrotation Yrotation Xrotation
                        JOINT LeftHandRing4
                        {
                          OFFSET 2.651321 2e-06 -7e-06
                          CHANNELS 3 Zrotation Yrotation Xrotation
                          JOINT LeftHandRingEnd
                          {
                            OFFSET 1.937663 1e-06 -4e-06
                            CHANNELS 3 Zrotation Yrotation Xrotation
                          }
                        }
                      }
                    }
                  }
                  JOINT LeftHandPinky1
                  {
                    OFFSET 2.865315 -1.525436 0.575687
                    CHANNELS 3 Zrotation Yrotation Xrotation
                    JOINT LeftHandPinky2
                    {
                      OFFSET 5.54936 1e-06 -8e-06
                      CHANNELS 3 Zrotation Yrotation Xrotation
                      JOINT LeftHandPinky3
                      {
                        OFFSET 3.070974 0.0 -4e-06
                        CHANNELS 3 Zrotation Yrotation Xrotation
                        JOINT LeftHandPinky4
                        {
                          OFFSET 1.549672 1e-06 0.0
                          CHANNELS 3 Zrotation Yrotation Xrotation
                          JOINT LeftHandPinkyEnd
                          {
                            OFFSET 1.952123 0.0 0.0
                            CHANNELS 3 Zrotation Yrotation Xrotation
                          }
                        }
                      }
                    }
                  }
                }
              }
            }
          }
          JOINT RightShoulder
          {
            OFFSET 23.161716 5.296122 -1.380114
            CHANNELS 3 Zrotation Yrotation Xrotation
            JOINT RightArm
            {
              OFFSET -16.027195 -2e-06 1.1e-05
              CHANNELS 3 Zrotation Yrotation Xrotation
              JOINT RightForeArm
              {
                OFFSET -28.736639 4e-06 2e-06
                CHANNELS 3 Zrotation Yrotation Xrotation
                JOINT RightHand
                {
                  OFFSET -27.133619 6e-06 0.0
                  CHANNELS 3 Zrotation Yrotation Xrotation
                  JOINT RightHandThumb1
                  {
                    OFFSET -2.274328 -3.351035 -0.83067
                    CHANNELS 3 Zrotation Yrotation Xrotation
                    JOINT RightHandThumb2
                    {
                      OFFSET -4.703594 -3e-06 2e-06
                      CHANNELS 3 Zrotation Yrotation Xrotation
                      JOINT RightHandThumb3
                      {
                        OFFSET -2.794935 -4e-06 -3e-06
                        CHANNELS 3 Zrotation Yrotation Xrotation
                        JOINT RightHandThumbEnd
                        {
                          OFFSET -3.183852 4e-06 1e-06
                          CHANNELS 3 Zrotation Yrotation Xrotation
                        }
                      }
                    }
                  }
                  JOINT RightHandIndex1
                  {
                    OFFSET -3.253496 -2.33755 -0.127667
                    CHANNELS 3 Zrotation Yrotation Xrotation
                    JOINT RightHandIndex2
                    {
                      OFFSET -6.344434 0.0 0.0
                      CHANNELS 3 Zrotation Yrotation Xrotation
                      JOINT RightHandIndex3
                      {
                        OFFSET -3.654871 0.0 -8e-06
                        CHANNELS 3 Zrotation Yrotation Xrotation
                        JOINT RightHandIndex4
                        {
                          OFFSET -2.327586 -1e-06 0.0
                          CHANNELS 3 Zrotation Yrotation Xrotation
                          JOINT RightHandIndexEnd
                          {
                            OFFSET -2.770001 3e-06 8e-06
                            CHANNELS 3 Zrotation Yrotation Xrotation
                          }
                        }
                      }
                    }
                  }
                  JOINT RightHandMiddle1
                  {
                    OFFSET -3.168223 -0.944764 0.411762
                    CHANNELS 3 Zrotation Yrotation Xrotation
                    JOINT RightHandMiddle2
                    {
                      OFFSET -6.266691 -1e-06 -4e-06
                      CHANNELS 3 Zrotation Yrotation Xrotation
                      JOINT RightHandMiddle3
                      {
                        OFFSET -4.348901 0.0 0.0
                        CHANNELS 3 Zrotation Yrotation Xrotation
                        JOINT RightHandMiddle4
                        {
                          OFFSET -3.00024 2e-06 -4e-06
                          CHANNELS 3 Zrotation Yrotation Xrotation
                          JOINT RightHandMiddleEnd
                          {
                            OFFSET -2.321477 -4e-06 -4e-06
                            CHANNELS 3 Zrotation Yrotation Xrotation
                          }
                        }
                      }
                    }
                  }
                  JOINT RightHandRing1
                  {
                    OFFSET -2.885654 0.293261 -0.119232
                    CHANNELS 3 Zrotation Yrotation Xrotation
                    JOINT RightHandRing2
                    {
                      OFFSET -6.032835 -1e-06 -4e-06
                      CHANNELS 3 Zrotation Yrotation Xrotation
                      JOINT RightHandRing3
                      {
                        OFFSET -4.33881 0.0 -4e-06
                        CHANNELS 3 Zrotation Yrotation Xrotation
                        JOINT RightHandRing4
                        {
                          OFFSET -2.654903 -4e-06 -4e-06
                          CHANNELS 3 Zrotation Yrotation Xrotation
                          JOINT RightHandRingEnd
                          {
                            OFFSET -1.935122 0.0 4e-06
                            CHANNELS 3 Zrotation Yrotation Xrotation
                          }
                        }
                      }
                    }
                  }
                  JOINT RightHandPinky1
                  {
                    OFFSET -2.866241 1.503904 -0.60527
                    CHANNELS 3 Zrotation Yrotation Xrotation
                    JOINT RightHandPinky2
                    {
                      OFFSET -5.553177 -2e-06 0.0
                      CHANNELS 3 Zrotation Yrotation Xrotation
                      JOINT RightHandPinky3
                      {
                        OFFSET -3.062664 -1e-06 -4e-06
                        CHANNELS 3 Zrotation Yrotation Xrotation
                        JOINT RightHandPinky4
                        {
                          OFFSET -1.546529 2e-06 4e-06
                          CHANNELS 3 Zrotation Yrotation Xrotation
                          JOINT RightHandPinkyEnd
                          {
                            OFFSET -1.952341 0.0 -4e-06
                            CHANNELS 3 Zrotation Yrotation Xrotation
                          }
                        }
                      }
                    }
                  }
                }
              }
            }
          }
        }
      }
    }
    JOINT LeftLeg
    {
      OFFSET -8.443107 2.567604 10.043214
      CHANNELS 3 Zrotation Yrotation Xrotation
      JOINT LeftShin
      {
        OFFSET 43.229198 1e-06 -1e-06
        CHANNELS 3 Zrotation Yrotation Xrotation
        JOINT LeftFoot
        {
          OFFSET 42.298611 1e-06 1e-06
          CHANNELS 3 Zrotation Yrotation Xrotation
          JOINT LeftToeBase
          {
            OFFSET 14.165858 1e-06 0.0
            CHANNELS 3 Zrotation Yrotation Xrotation
            JOINT LeftToeEnd
            {
              OFFSET 6.7141 -0.234461 0.0
              CHANNELS 3 Zrotation Yrotation Xrotation
            }
          }
        }
      }
    }
    JOINT RightLeg
    {
      OFFSET -8.303923 2.592729 -10.047278
      CHANNELS 3 Zrotation Yrotation Xrotation
      JOINT RightShin
      {
        OFFSET -43.369682 0.0 1e-06
        CHANNELS 3 Zrotation Yrotation Xrotation
        JOINT RightFoot
        {
          OFFSET -42.260784 4e-06 2e-06
          CHANNELS 3 Zrotation Yrotation Xrotation
          JOINT RightToeBase
          {
            OFFSET -14.222245 -2e-06 -1e-06
            CHANNELS 3 Zrotation Yrotation Xrotation
            JOINT RightToeEnd
            {
              OFFSET -6.660062 0.232574 -2e-06
              CHANNELS 3 Zrotation Yrotation Xrotation
            }
          }
        }
      }
    }
  }
}
MOTION
Frames: 4
Frame Time: 0.03333333333333333
0.0 0.0 0.0 0.0 -0.0 0.0 -1.596568 97.308662 0.88042 91.806282 -0.618561 89.212357 15.998477 1.077212 -0.230867 -3.371305 0.206936 -0.844721 33.886692 2.847665 -1.933537 17.085442 -10.47456 1.854804 -2.544364 -0.835522 1.262711 -54.215904 -3.046494 4.534651 7e-06 0.0 -0.0 0.066832 0.025457 -0.004852 0.140929 0.011453 0.003272 0.123453 0.03321 0.000497 -2.89585 -80.777527 12.72614 88.127808 -62.179256 -82.037636 144.475876 -0.292492 0.720917 20.583551 -7.913828 -0.725976 17.636633 -26.322733 52.41119 -19.466654 -14.395596 29.410381 -1e-06 -8.774821 -1e-06 15.705375 -17.850742 5.963767 -0.609777 -1.795654 -3.889329 -4.807089 -11.04681 -2.937848 1e-06 -20.976015 1e-06 -5.019974 -25.033558 -4.03188 6e-06 0.0 -0.0 -10.634536 -5.686972 -3.565588 10.573271 -17.922949 -3.113898 3e-06 -13.821211 -1e-06 -0.50178 -31.181505 -4.027017 -11.732304 -59.277847 7.866094 -13.982716 -7.150198 -2.875043 13.772729 -8.401491 -3.218241 0.347731 -34.211555 0.771659 -0.96303 -17.73337 2.621021 0.0 -0.0 1e-06 -17.346424 -20.095217 -4.201779 21.757557 -1.638374 3.866427 -0.0 -6.338825 0.0 -1.697588 -22.591743 -6.194009 -1e-06 -5e-06 -4e-06 159.767075 -84.370857 33.685894 93.604881 -50.529644 -54.60693 139.129471 1.034058 -0.455939 15.862892 -8.983438 15.404375 22.182121 -20.375896 49.933319 -16.701817 -16.743532 28.476532 -3e-06 -12.690603 -1e-06 15.871573 -17.17049 3.06012 -0.105921 -1.513856 -4.275881 -5.039038 -5.612872 -2.953554 4e-06 -11.020523 -3e-06 -6.111298 -15.895334 -3.84047 -1e-06 -0.0 -1e-06 -10.283369 -5.680288 -4.341838 11.028296 -11.302407 -2.372635 -1.384269 -14.238584 -6.320119 -0.625443 -26.924194 -3.827602 -4.585611 -50.21434 -3.048334 -13.708524 -7.363479 -3.720938 18.141155 -14.05274 -3.242674 3e-06 -18.787271 2e-06 -0.429711 -8.456043 2.555503 1e-06 1e-06 1e-06 -15.923536 -20.094484 -5.473583 30.419218 -7.190826 1.735926 2e-06 -8.162929 -1e-06 -1.861904 -22.861473 -6.167941 -1e-06 -3e-06 -1e-06 162.37265 0.796279 9.121408 32.916161 -0.16143 0.20364 -84.03788 -3.362159 -6.493699 -4.987415 1.522681 2.156478 -0.999998 0.0 0.0 -19.147329 -4.240821 9.170065 34.296829 -0.288033 0.756514 -85.486855 7.138672 -4.826725 -5.221878 0.766746 1.733203 -1.000001 0.0 -0.0 
0.0 0.0 0.0 0.0 -0.0 0.0 -1.403011 97.335297 1.011538 91.72644 -0.782554 89.019455 15.913175 1.091317 -0.278274 -3.414172 0.223177 -0.783886 33.664425 2.806129 -1.855017 16.670139 -10.508306 1.807458 -2.568544 -0.820511 1.359521 -54.013809 -3.15293 4.536738 6e-06 0.0 -0.0 0.048017 0.015554 0.026277 0.126757 0.002235 0.034406 0.113407 0.022572 0.030466 -2.698822 -80.702461 12.240549 89.062828 -62.307335 -82.887695 144.465652 -0.546595 0.588054 20.520346 -7.670712 -0.743261 17.636639 -26.322737 52.411194 -19.466656 -14.3956 29.410389 1e-06 -8.774821 -1e-06 15.732715 -17.703236 6.008686 -0.609776 -1.795651 -3.889326 -4.807088 -11.046816 -2.937849 -2e-06 -20.976019 3e-06 -5.019978 -25.03356 -4.031877 7e-06 0.0 -1e-06 -10.634538 -5.686975 -3.565588 10.573276 -17.922956 -3.1139 2e-06 -13.821216 0.0 -0.501779 -31.181511 -4.02702 -11.770764 -59.35183 7.902989 -13.982719 -7.150198 -2.875041 13.772734 -8.401494 -3.218242 0.347727 -34.211563 0.771659 -0.963031 -17.733376 2.621019 1e-06 -0.0 0.0 -17.346424 -20.095221 -4.201779 21.757561 -1.638375 3.866431 0.0 -6.338826 1e-06 -1.697592 -22.591751 -6.194008 -1e-06 -5e-06 -2e-06 158.553986 -84.482361 34.962158 93.139412 -50.506222 -53.711258 139.532043 1.001246 -0.4572 15.710576 -8.960594 15.042216 22.18211 -20.3759 49.933311 -16.701811 -16.743525 28.476526 -2e-06 -12.690597 1e-06 15.831309 -17.123144 2.972289 -0.10592 -1.513854 -4.27588 -5.039043 -5.612872 -2.953555 3e-06 -11.020523 -0.0 -6.111294 -15.89533 -3.840469 -2e-06 -1e-06 -1e-06 -10.283372 -5.680288 -4.341838 11.02829 -11.302402 -2.372629 -1.384269 -14.23858 -6.320117 -0.62544 -26.924187 -3.827599 -4.450596 -50.03624 -3.081249 -13.708525 -7.363472 -3.720937 18.141148 -14.052741 -3.242674 5e-06 -18.78727 1e-06 -0.429711 -8.456042 2.555504 2e-06 1e-06 3e-06 -15.923536 -20.094482 -5.47358 30.41921 -7.190821 1.735927 1e-06 -8.162927 -1e-06 -1.861903 -22.861469 -6.167939 -2e-06 -4e-06 0.0 162.332626 0.866115 9.255235 32.887772 -0.15551 0.211594 -84.162773 -3.756085 -6.414265 -5.031138 1.545611 2.160949 -0.999998 0.0 0.0 -19.174234 -4.250402 9.255791 34.085594 -0.306538 0.769631 -85.451782 7.224425 -4.943022 -5.257762 0.737406 1.730888 -1.000003 -0.0 0.0 
0.0 0.0 0.0 0.0 -0.0 0.0 -1.198447 97.328423 1.075112 91.603378 -0.901141 88.835983 15.879635 1.079023 -0.304293 -3.431187 0.242181 -0.794949 33.485104 2.774525 -1.751933 16.25778 -10.429113 1.804803 -2.586147 -0.811351 1.407696 -53.873531 -3.303795 4.657934 6e-06 -0.0 0.0 0.0436 0.014625 0.030329 0.109798 -0.000527 0.038674 0.103047 0.023307 0.032872 -2.106066 -80.577568 11.455052 89.860352 -62.461205 -83.792007 144.592651 -0.779647 0.55663 20.679121 -7.555102 -1.041133 17.636625 -26.322735 52.411186 -19.46666 -14.395597 29.410389 1e-06 -8.774822 -2e-06 15.730976 -17.592857 6.029476 -0.609777 -1.795655 -3.889328 -4.807087 -11.046811 -2.937848 2e-06 -20.976011 2e-06 -5.019974 -25.033552 -4.031875 7e-06 -0.0 1e-06 -10.634531 -5.686969 -3.565587 10.573271 -17.922951 -3.113897 2e-06 -13.821213 2e-06 -0.50178 -31.181505 -4.02701 -11.648511 -59.306717 7.803696 -13.982711 -7.150197 -2.875041 13.772731 -8.401489 -3.21824 0.347728 -34.211544 0.771659 -0.963031 -17.733368 2.62102 0.0 -0.0 -1e-06 -17.346418 -20.095211 -4.201778 21.757557 -1.638372 3.866427 1e-06 -6.338825 2e-06 -1.697591 -22.591743 -6.194003 -1e-06 -4e-06 -2e-06 158.739105 -84.527863 34.647343 92.465439 -50.508949 -52.83868 139.928787 0.896468 -0.34396 15.665611 -8.828894 14.455071 22.182112 -20.375895 49.933308 -16.701809 -16.743528 28.476519 -3e-06 -12.690598 -1e-06 15.760597 -17.088196 2.877216 -0.105922 -1.513856 -4.275879 -5.039039 -5.612868 -2.953553 4e-06 -11.020517 -1e-06 -6.111294 -15.89533 -3.84047 -2e-06 -0.0 -0.0 -10.283368 -5.680284 -4.341835 11.02829 -11.302402 -2.372634 -1.384268 -14.238577 -6.32012 -0.625435 -26.924179 -3.827602 -4.390388 -49.799519 -3.09093 -13.708522 -7.363472 -3.720937 18.14115 -14.052735 -3.242675 5e-06 -18.787264 -1e-06 -0.429713 -8.456041 2.555502 2e-06 1e-06 3e-06 -15.923536 -20.094479 -5.47358 30.41921 -7.190823 1.73593 2e-06 -8.162924 -0.0 -1.861908 -22.861467 -6.167939 -2e-06 -3e-06 -1e-06 162.231796 0.91721 9.421831 32.991531 -0.156416 0.233187 -84.345963 -4.245677 -6.302384 -5.007436 1.554176 2.167103 -1.0 0.0 -0.0 -19.243654 -4.224707 9.32376 33.970211 -0.313215 0.786833 -85.424583 7.302224 -5.124422 -5.22968 0.714402 1.727101 -1.000002 -0.0 -0.0 
0.0 0.0 0.0 0.0 -0.0 0.0 -0.980957 97.323524 1.062435 91.442673 -0.997772 88.622841 15.871295 1.062583 -0.306259 -3.423344 0.253557 -0.803433 33.360935 2.803545 -1.652423 15.932883 -10.345337 1.839988 -2.583072 -0.784948 1.436614 -53.827766 -3.41207 4.809368 6e-06 0.0 0.0 0.045276 0.018027 0.020725 0.099374 0.001035 0.029447 0.097611 0.028453 0.021502 -1.425038 -80.487564 10.679921 90.202629 -62.576534 -84.430412 144.764069 -0.972894 0.600452 20.936512 -7.473285 -1.17268 17.636631 -26.322729 52.411179 -19.466661 -14.395592 29.410381 0.0 -8.77482 -2e-06 15.673025 -17.538202 6.070045 -0.609774 -1.795653 -3.889327 -4.807086 -11.046813 -2.937848 4e-06 -20.976017 -1e-06 -5.019969 -25.033556 -4.031879 7e-06 0.0 0.0 -10.634531 -5.686972 -3.565587 10.573268 -17.922951 -3.113898 3e-06 -13.821212 -1e-06 -0.501778 -31.181507 -4.027013 -11.633192 -59.267654 7.780169 -13.982713 -7.150198 -2.875041 13.77273 -8.401496 -3.218243 0.347736 -34.211555 0.771653 -0.963027 -17.733372 2.621021 1e-06 -0.0 0.0 -17.346416 -20.095221 -4.201783 21.757555 -1.638376 3.866429 1e-06 -6.338826 0.0 -1.697589 -22.591743 -6.194005 -0.0 -4e-06 -1e-06 159.875839 -84.540703 33.353775 91.73336 -50.428047 -52.008625 140.182281 0.882788 -0.202485 15.684858 -8.59853 14.07367 22.182125 -20.375898 49.933323 -16.701815 -16.743525 28.47653 -1e-06 -12.690601 -3e-06 15.749348 -17.096153 2.797865 -0.105921 -1.513855 -4.275879 -5.039045 -5.612872 -2.953558 4e-06 -11.020524 -1e-06 -6.111295 -15.895338 -3.840474 -1e-06 -1e-06 -1e-06 -10.283374 -5.680288 -4.341838 11.028294 -11.302407 -2.372633 -1.384268 -14.238585 -6.320121 -0.625438 -26.924194 -3.827601 -4.350193 -49.652683 -3.151072 -13.708527 -7.363479 -3.72094 18.141148 -14.052738 -3.24267 5e-06 -18.787271 0.0 -0.429712 -8.456043 2.555501 2e-06 1e-06 3e-06 -15.923539 -20.09449 -5.473588 30.419214 -7.190826 1.735933 3e-06 -8.162928 -3e-06 -1.861902 -22.861473 -6.167943 1e-06 -1e-06 -1e-06 162.062836 0.913914 9.49614 33.177383 -0.162375 0.253855 -84.464119 -4.61187 -6.210575 -5.021245 1.551757 2.167427 -0.999997 0.0 0.0 -19.336557 -4.155401 9.419925 33.834949 -0.317251 0.795915 -85.297585 7.387778 -5.317716 -5.244125 0.700194 1.723595 -1.000002 0.0 0.0 
